<svg xmlns="http://www.w3.org/2000/svg" width="1400" height="620" viewBox="0 0 1400 620" fill="none">
<defs><linearGradient id="g" x1="110" y1="70" x2="1240" y2="540"><stop stop-color="#8B5CF6"/><stop offset=".35" stop-color="#06B6D4"/><stop offset=".7" stop-color="#EC4899"/><stop offset="1" stop-color="#A3E635"/></linearGradient><filter id="s"><feDropShadow dx="0" dy="8" stdDeviation="12" flood-opacity=".08"/></filter></defs>
<rect width="1400" height="620" rx="28" fill="#F7F8FB"/><text x="62" y="64" font-family="Arial" font-size="24" font-weight="800" fill="#111318">How JobRadar Everywhere moves a job from the web to your dashboard</text>
<g font-family="Arial" filter="url(#s)"><g transform="translate(62 110)"><rect width="220" height="110" rx="18" fill="#FFF" stroke="#DDE1E8"/><text x="24" y="38" font-size="13" font-weight="800" fill="#7C3AED">DISCOVERY</text><text x="24" y="66" font-size="17" font-weight="800" fill="#111318">Web + job platforms</text><text x="24" y="90" font-size="11" fill="#69717D">FreeHire · Agent Reach · ATS · careers</text></g><g transform="translate(330 110)"><rect width="220" height="110" rx="18" fill="#FFF" stroke="#DDE1E8"/><text x="24" y="38" font-size="13" font-weight="800" fill="#06B6D4">HARD RULES</text><text x="24" y="66" font-size="17" font-weight="800" fill="#111318">Eligibility gate</text><text x="24" y="90" font-size="11" fill="#69717D">role · location · fresher-only · status</text></g><g transform="translate(598 110)"><rect width="220" height="110" rx="18" fill="#FFF" stroke="#DDE1E8"/><text x="24" y="38" font-size="13" font-weight="800" fill="#EC4899">VERIFY</text><text x="24" y="66" font-size="17" font-weight="800" fill="#111318">Link + source check</text><text x="24" y="90" font-size="11" fill="#69717D">official/ATS destination · open status</text></g><g transform="translate(866 110)"><rect width="220" height="110" rx="18" fill="#FFF" stroke="#DDE1E8"/><text x="24" y="38" font-size="13" font-weight="800" fill="#A3A31B">AI + RESUME</text><text x="24" y="66" font-size="17" font-weight="800" fill="#111318">Semantic scoring</text><text x="24" y="90" font-size="11" fill="#69717D">Gemini · Copilot · resume fit</text></g><g transform="translate(1134 110)"><rect width="204" height="110" rx="18" fill="#15171A"/><text x="24" y="38" font-size="13" font-weight="800" fill="#A3E635">RESULT</text><text x="24" y="66" font-size="17" font-weight="800" fill="#FFF">Dashboard</text><text x="24" y="90" font-size="11" fill="#BFC5D0">save · apply · alert · track</text></g></g>
<path d="M282 165h48M550 165h48M818 165h48M1086 165h48" stroke="url(#g)" stroke-width="4" stroke-linecap="round"/><path d="m320 157 10 8-10 8M588 157l10 8-10 8M856 157l10 8-10 8M1124 157l10 8-10 8" stroke="#737A86" stroke-width="2"/>
<g transform="translate(62 290)" font-family="Arial"><rect width="1276" height="250" rx="22" fill="#111318"/><text x="32" y="48" font-size="14" font-weight="800" fill="#A3E635">AUTOMATION LAYER</text><text x="32" y="82" font-size="20" font-weight="800" fill="#FFF">GitHub Actions keeps the project running when your laptop is off</text><g transform="translate(32 112)"><rect width="250" height="92" rx="14" fill="#FFFFFF" fill-opacity=".06" stroke="#8B5CF6" stroke-opacity=".5"/><text x="18" y="34" font-size="13" font-weight="700" fill="#EDE9FE">Scheduled research</text><text x="18" y="60" font-size="11" fill="#B8BFCA">3 runs/day by default</text></g><g transform="translate(302 112)"><rect width="250" height="92" rx="14" fill="#FFFFFF" fill-opacity=".06" stroke="#06B6D4" stroke-opacity=".5"/><text x="18" y="34" font-size="13" font-weight="700" fill="#CFFAFE">Notification diagnostics</text><text x="18" y="60" font-size="11" fill="#B8BFCA">ntfy · Telegram · email</text></g><g transform="translate(572 112)"><rect width="250" height="92" rx="14" fill="#FFFFFF" fill-opacity=".06" stroke="#EC4899" stroke-opacity=".5"/><text x="18" y="34" font-size="13" font-weight="700" fill="#FCE7F3">Resume enrichment</text><text x="18" y="60" font-size="11" fill="#B8BFCA">Gemini + Copilot workflow</text></g><g transform="translate(842 112)"><rect width="370" height="92" rx="14" fill="#FFFFFF" fill-opacity=".06" stroke="#A3E635" stroke-opacity=".5"/><text x="18" y="34" font-size="13" font-weight="700" fill="#ECFCCB">Optional safe auto-apply queue</text><text x="18" y="60" font-size="11" fill="#B8BFCA">high-confidence private ATS only · beta</text></g></g>
</svg>
